<?xml version="1.0" encoding="utf-8"?><svg viewBox="0 0 115 66" xmlns="http://www.w3.org/2000/svg" xmlns:xlink="http://www.w3.org/1999/xlink"><style>:root>svg{display:none}:root>svg:target{display:block}</style><svg viewBox="0 0 25 21" id="email" xmlns="http://www.w3.org/2000/svg"><path d="M22.167.833H2.833A2.424 2.424 0 00.417 3.25v14.5a2.424 2.424 0 002.416 2.417h19.334a2.424 2.424 0 002.416-2.417V3.25A2.424 2.424 0 0022.167.833zm-.484 5.136l-7.902 4.942a2.394 2.394 0 01-2.562 0L3.317 5.969a1.026 1.026 0 111.088-1.74L12.5 9.292l8.096-5.063a1.026 1.026 0 111.087 1.74z"/></svg><svg viewBox="0 0 17 24" id="location" xmlns="http://www.w3.org/2000/svg"><path d="M8.5.417A8.452 8.452 0 00.042 8.875c0 5.039 5.34 11.987 7.54 14.633a1.2 1.2 0 001.848 0c2.188-2.646 7.528-9.594 7.528-14.633A8.452 8.452 0 008.5.417zm0 11.479a3.022 3.022 0 010-6.042 3.022 3.022 0 010 6.042z"/></svg><svg viewBox="0 0 115 44" id="logo" xmlns="http://www.w3.org/2000/svg"><g clip-path="url(#cclip0_7_11)"><path d="M-.001 25.44V.326h3.225v21.848h8.913v3.264l-12.138.002zM21.009.326v25.112h-3.225V.327l3.225-.001zm27.994 3.437c2.493 2.511 3.74 5.54 3.74 9.088 0 3.546-1.247 6.576-3.74 9.088-2.493 2.51-5.5 3.766-9.022 3.766-3.522 0-6.529-1.255-9.023-3.766-2.493-2.512-3.739-5.542-3.739-9.088 0-3.548 1.246-6.577 3.74-9.088 2.493-2.512 5.5-3.767 9.022-3.767 3.522 0 6.53 1.255 9.022 3.767zm-9.022-.487c-2.629 0-4.87.934-6.724 2.802-1.854 1.868-2.781 4.125-2.781 6.773 0 2.646.93 4.907 2.789 6.78 1.86 1.873 4.098 2.81 6.716 2.81 2.628 0 4.87-.937 6.724-2.81s2.782-4.134 2.782-6.78c0-2.648-.928-4.905-2.782-6.773-1.854-1.868-4.096-2.802-6.724-2.802zM58.64.327h2.945L71.869 18.25V.327h3.242v25.112H72.29L61.865 7.295V25.44H58.64V.327zm26.278 0v25.112h-3.226V.327h3.226zm25.89 19.132l2.415 2.182c-2.95 2.71-6.072 4.065-9.365 4.065-3.522 0-6.524-1.25-9.007-3.75-2.483-2.502-3.724-5.526-3.724-9.073 0-3.536 1.241-6.56 3.724-9.072C97.334 1.3 100.336.044 103.858.044c3.293 0 6.415 1.356 9.365 4.065l-2.415 2.214c-2.223-1.989-4.54-2.983-6.95-2.983-2.608 0-4.839.932-6.693 2.794-1.855 1.862-2.782 4.112-2.782 6.749 0 2.647.927 4.902 2.782 6.765 1.854 1.862 4.085 2.793 6.693 2.793 2.41 0 4.727-.993 6.95-2.982zM52.977 40.864h3.345v.673h-4.075V34.31h.73v6.554zm4.56-1.532c.021.238.078.463.173.674.18.406.506.73.913.908.203.09.422.133.659.133.358 0 .667-.083.927-.25.26-.167.458-.359.593-.577l.517.43c-.284.36-.596.618-.938.775-.345.157-.72.237-1.1.235a2.51 2.51 0 01-.978-.189c-.3-.126-.559-.3-.775-.525a2.51 2.51 0 01-.512-.797 2.63 2.63 0 01-.188-1.001c0-.36.061-.694.183-1 .122-.306.29-.572.507-.796.216-.225.47-.4.76-.527.29-.125.604-.188.943-.188.358 0 .679.065.962.194.284.13.522.301.715.516.193.214.34.466.441.755.102.29.153.597.153.924v.306h-3.955zm3.225-.551c0-.456-.136-.825-.406-1.108-.27-.283-.649-.424-1.135-.424-.216 0-.426.043-.629.127-.203.086-.38.2-.532.343-.15.14-.274.306-.365.49-.09.177-.137.373-.137.572h3.204zm2.31 3.716c.196.265.451.478.766.638.314.16.664.24 1.049.24.337 0 .625-.05.861-.148a1.5 1.5 0 00.573-.403c.146-.17.25-.37.315-.597.063-.228.095-.472.095-.73v-.858h-.02a1.83 1.83 0 01-.79.694c-.31.136-.645.206-.984.204-.344 0-.667-.061-.967-.183a2.443 2.443 0 01-.786-.506 2.32 2.32 0 01-.527-.77 2.43 2.43 0 01-.193-.97 2.545 2.545 0 01.685-1.757c.213-.224.466-.399.76-.526.293-.125.617-.188.968-.188.142 0 .292.013.45.04.346.06.672.206.948.424.156.12.301.27.437.455h.02v-.797h.668v4.738c0 .258-.032.534-.095.826-.065.293-.19.562-.376.807a2.13 2.13 0 01-.775.613c-.332.163-.764.245-1.298.245-.472 0-.895-.078-1.267-.236a2.935 2.935 0 01-1.013-.724l.496-.531zm.122-3.41c0 .48.183.942.512 1.292.159.166.344.3.557.397.213.1.445.148.695.148.475.003.933-.178 1.277-.505.169-.16.3-.352.39-.577.092-.224.134-.476.127-.755 0-.252-.04-.488-.122-.71a1.706 1.706 0 00-.355-.582 1.714 1.714 0 00-.567-.398 1.832 1.832 0 00-.75-.148c-.25 0-.482.05-.695.148a1.838 1.838 0 00-1.069 1.69zm8.748-.48v-.122c0-.824-.405-1.236-1.216-1.236-.555 0-1.038.187-1.45.562l-.405-.48c.446-.463 1.115-.694 2.006-.694.23 0 .452.034.665.102.212.067.396.172.552.312.155.14.28.314.375.525.095.21.142.464.142.756v2.133a7.29 7.29 0 00.081 1.072h-.649a3.915 3.915 0 01-.045-.377 5.535 5.535 0 01-.015-.399h-.02c-.197.321-.428.55-.695.69-.267.14-.594.21-.979.21-.21 0-.411-.03-.608-.088a1.548 1.548 0 01-.522-.265 1.283 1.283 0 01-.502-1.047c0-.388.1-.693.3-.914a1.83 1.83 0 01.75-.495c.3-.108.621-.176.963-.204.341-.027.654-.04.937-.04l.335-.001zm-.344.551c-.17 0-.38.01-.634.026a3.627 3.627 0 00-.73.123c-.218.057-.422.16-.598.301a.687.687 0 00-.248.562c0 .156.032.29.096.403.064.112.15.203.258.275.108.071.228.123.36.154.132.03.266.045.4.045.243 0 .455-.04.634-.123a1.286 1.286 0 00.72-.82c.057-.188.086-.388.086-.599v-.347h-.344zm3.385 2.38h-.669v-7.72h.669v7.72zm8.068-6.034c-.317-.47-.78-.705-1.389-.705a2.03 2.03 0 00-.557.077 1.55 1.55 0 00-.491.234 1.174 1.174 0 00-.482.996c0 .326.092.581.274.76.182.181.408.33.679.445.27.115.566.22.887.311.32.092.617.215.886.368.271.153.498.355.68.607.182.252.273.596.273 1.031 0 .327-.07.622-.207.883-.134.256-.32.481-.548.66-.226.176-.48.312-.76.407a2.611 2.611 0 01-.846.143 3.18 3.18 0 01-1.252-.25 2.383 2.383 0 01-1.009-.822l.67-.48c.154.266.37.478.646.639.276.16.603.24.98.24.182 0 .364-.03.546-.087.182-.058.345-.143.49-.256.144-.111.264-.25.359-.413.094-.164.14-.35.14-.562 0-.251-.052-.46-.156-.627a1.347 1.347 0 00-.415-.419 2.598 2.598 0 00-.589-.28 47.772 47.772 0 00-.679-.226 7.258 7.258 0 01-.68-.255 2.333 2.333 0 01-.587-.362 1.625 1.625 0 01-.415-.552c-.105-.22-.158-.498-.158-.832 0-.347.066-.65.198-.908a1.9 1.9 0 01.527-.644c.22-.17.468-.296.745-.378.277-.081.561-.122.851-.122.406 0 .774.065 1.106.194.33.13.638.357.922.685l-.639.5zm6.792 3.644c0 .361-.063.694-.188 1-.119.298-.296.57-.521.798a2.39 2.39 0 01-.796.525 2.67 2.67 0 01-1.02.19c-.364 0-.7-.064-1.008-.19a2.377 2.377 0 01-.795-.525 2.4 2.4 0 01-.522-.797 2.617 2.617 0 01-.188-1.001c0-.36.062-.694.188-1 .124-.306.298-.572.522-.797.222-.224.487-.399.795-.526a2.65 2.65 0 011.009-.188c.371 0 .71.063 1.019.188.307.127.572.302.796.526.222.225.396.49.52.796.126.307.189.64.189 1v.001zm-.73 0a2.14 2.14 0 00-.127-.745 1.706 1.706 0 00-1.667-1.154c-.277 0-.526.05-.745.148-.22.1-.406.234-.558.403-.152.171-.27.372-.355.603-.084.231-.127.48-.127.745 0 .266.043.514.127.746.085.231.203.432.355.601.152.172.338.306.558.404.22.099.468.148.745.148.277 0 .525-.049.745-.148.22-.098.407-.232.562-.404.156-.169.276-.37.36-.601.085-.232.127-.48.127-.746zm2.767 2.39h-.67v-7.72h.67v7.72zm5.037 0a5.028 5.028 0 01-.024-.384 11.643 11.643 0 01-.006-.383h-.02c-.074.13-.169.25-.284.358-.115.11-.243.202-.385.28-.142.079-.293.14-.451.185-.16.044-.316.066-.471.066-.609 0-1.059-.162-1.349-.485-.29-.323-.435-.784-.435-1.383v-3.033h.669v2.645c0 .266.02.5.06.704.041.205.11.376.209.515a.9.9 0 00.395.317c.165.071.372.107.623.107.033 0 .128-.013.284-.04.179-.038.347-.115.492-.226a1.62 1.62 0 00.46-.55c.135-.246.203-.586.203-1.022v-2.45h.669v3.727c.008.351.025.702.051 1.052h-.69zm4.664-4.167h-1.369v2.819c0 .177.017.321.051.433.034.114.081.2.142.261a.48.48 0 00.218.127.977.977 0 00.279.036c.114 0 .233-.017.355-.051.12-.034.233-.078.334-.132l.03.622a2.12 2.12 0 01-1.302.123.929.929 0 01-.38-.195 1.065 1.065 0 01-.284-.387c-.075-.163-.112-.378-.112-.643v-3.013H98.54v-.612h1.003v-1.348h.67v1.348h1.368v.612zm1.885-2.449c0 .143-.05.26-.152.352a.488.488 0 01-.334.137.488.488 0 01-.335-.137.444.444 0 01-.115-.16.442.442 0 01-.038-.192c0-.143.051-.26.153-.352a.488.488 0 01.335-.138c.121 0 .232.046.334.138a.454.454 0 01.152.352zm-.152 6.615h-.67V36.76h.67v4.777zm6.406-2.39c0 .362-.063.695-.187 1.002a2.46 2.46 0 01-.522.797 2.387 2.387 0 01-.796.525 2.66 2.66 0 01-1.02.19c-.364 0-.7-.064-1.007-.19a2.38 2.38 0 01-.796-.525 2.433 2.433 0 01-.522-.797 2.619 2.619 0 01-.188-1.001c0-.36.062-.694.188-1 .125-.306.299-.572.522-.797.222-.224.488-.399.796-.526a2.645 2.645 0 011.008-.188c.372 0 .71.063 1.019.188.307.127.572.302.796.526.222.225.396.49.522.796.124.307.187.64.187 1zm-.73 0a2.167 2.167 0 00-.126-.744 1.7 1.7 0 00-.923-1.006 1.797 1.797 0 00-.745-.148c-.277 0-.526.05-.745.148-.22.1-.405.234-.558.403a1.862 1.862 0 00-.354.603c-.085.231-.127.48-.127.745 0 .266.042.514.127.746.084.231.203.432.354.601.153.172.338.306.558.404.22.099.468.148.745.148.277 0 .525-.049.745-.148.22-.098.407-.232.562-.404.156-.169.276-.37.36-.601.085-.232.127-.48.127-.746v-.001zm2.584-2.388c.014.13.022.257.026.383.003.126.005.254.005.383h.02c.074-.129.169-.248.284-.358.238-.219.525-.378.837-.464.158-.044.315-.066.47-.066.609 0 1.058.161 1.349.485.29.323.435.784.435 1.383v3.032h-.669v-2.644c0-.531-.09-.937-.274-1.22-.182-.283-.52-.424-1.013-.424a2.744 2.744 0 00-.283.041 1.226 1.226 0 00-.492.224 1.615 1.615 0 00-.461.552c-.135.245-.203.585-.203 1.021v2.45h-.669v-3.726a20.515 20.515 0 00-.051-1.052h.689zm-68.592 1.967H0V37.38h42.983l-.001 1.346z"/></g><defs><clipPath id="cclip0_7_11"><path d="M0 0h115v44H0z"/></clipPath></defs></svg><svg viewBox="0 0 23 23" id="phone" xmlns="http://www.w3.org/2000/svg"><path d="M22.375 15.68l-6.368-.736-3.045 3.045A18.18 18.18 0 015 10.026l3.057-3.057L7.32.625H.661c-.7 12.3 9.413 22.415 21.714 21.714V15.68z"/></svg><svg viewBox="0 0 14 17" id="secure" xmlns="http://www.w3.org/2000/svg"><g clip-path="url(#eclip0_7_23)"><path d="M7.19 16.967a.568.568 0 01-.381 0C-.171 14.498-.062 8.649.018 4.377c.008-.459.016-.893.016-1.312a.59.59 0 01.584-.595c2.494 0 4.392-.732 5.975-2.302a.574.574 0 01.813 0c1.583 1.57 3.482 2.302 5.977 2.302a.59.59 0 01.583.595c0 .42.008.853.017 1.312.08 4.271.189 10.121-6.792 12.59H7.19zM12.817 4.4c-.005-.258-.01-.508-.012-.752C10.467 3.547 8.599 2.825 7 1.403 5.4 2.825 3.533 3.547 1.197 3.648l-.013.752c-.08 4.294-.17 9.155 5.816 11.374 5.987-2.22 5.897-7.08 5.816-11.374h.001zM9.833 6.433a.604.604 0 010 .842l-3.227 3.292a.573.573 0 01-.825 0L4.167 8.92a.603.603 0 01.189-.971.575.575 0 01.636.129l1.201 1.226 2.815-2.872a.575.575 0 01.825 0v.001z"/></g><defs><clipPath id="eclip0_7_23"><path d="M0 0h14v17H0z"/></clipPath></defs></svg><svg viewBox="0 0 68 66" id="what-1" xmlns="http://www.w3.org/2000/svg"><g clip-path="url(#fclip0_7_34)"><path d="M50.393.004C40.438-.212 32.146 7.638 31.9 17.512l-.124 4.971c-.034 1.356 1.057 2.49 2.424 2.52 1.367.029 2.513-1.056 2.546-2.412l.125-4.971c.178-7.149 6.191-12.842 13.4-12.686 7.207.157 12.93 6.104 12.752 13.253-.179 7.148-6.192 12.842-13.4 12.685L18.5 30.197C8.545 29.981.253 37.831.007 47.705c-.247 9.874 7.644 18.075 17.6 18.29 9.955.216 18.247-7.633 18.493-17.507l.123-4.916c.034-1.357-1.057-2.49-2.424-2.52-1.367-.03-2.513 1.056-2.547 2.412l-.123 4.916c-.178 7.149-6.191 12.842-13.4 12.686-7.207-.157-12.93-6.104-12.752-13.253.179-7.149 6.192-12.842 13.4-12.686l31.123.675c9.956.216 18.247-7.633 18.494-17.507C68.24 8.42 60.349.22 50.394.005l-.001-.001z"/></g><defs><clipPath id="fclip0_7_34"><path d="M0 0h68v66H0z"/></clipPath></defs></svg><svg viewBox="0 0 86 64" id="what-2" xmlns="http://www.w3.org/2000/svg"><g clip-path="url(#gclip0_7_47)"><path d="M79.622 20.272c0 2.064-.306 4.08-.896 5.998h5.142c1.177 0 2.132.957 2.132 2.136 0 1.18-.955 2.135-2.132 2.135H77.47c-.202 0-.397-.028-.582-.08a20.375 20.375 0 01-3.196 4.145l-28.72 28.768a2.131 2.131 0 01-3.017 0L13.233 34.606a20.264 20.264 0 01-2.747-3.42c-.171.044-.35.068-.536.068H2.132A2.134 2.134 0 010 29.118c0-1.18.955-2.136 2.132-2.136h6.315c-2.482-7.121-.887-15.364 4.786-21.044A20.09 20.09 0 0127.544 0a20.09 20.09 0 0114.312 5.938l1.607 1.609 1.607-1.61A20.089 20.089 0 0159.382 0a20.09 20.09 0 0114.311 5.938 20.155 20.155 0 015.929 14.334zM70.678 8.957A15.86 15.86 0 0059.38 4.271a15.86 15.86 0 00-11.296 4.686l-3.115 3.12a2.128 2.128 0 01-3.015 0l-3.114-3.12a15.862 15.862 0 00-11.297-4.686 15.857 15.857 0 00-11.296 4.686c-5.074 5.083-6.015 12.761-2.822 18.806h14.811l5.302-11.284c.245-.52.739-.845 1.353-.816a1.422 1.422 0 011.27.938l7.89 21.886 6.491-18.319a1.42 1.42 0 012.633-.112l3.176 6.995h17.501c2.76-5.926 1.702-13.209-3.175-18.094h.001zm-54.43 22.629l27.215 27.258 27.215-27.258a16.066 16.066 0 001.517-1.756H55.736c-.557 0-1.363-.257-1.593-.766l-2.097-4.62-6.642 18.745c-.2.566-.734.946-1.335.947h-.003c-.6 0-1.133-.376-1.337-.94l-8.076-22.398-4.227 8.996c-.234.498-.436.747-.987.747H15.293c.3.36.619.708.955 1.045z"/></g><defs><clipPath id="gclip0_7_47"><path d="M0 0h86v64H0z"/></clipPath></defs></svg><svg viewBox="0 0 64 64" id="what-3" xmlns="http://www.w3.org/2000/svg"><g clip-path="url(#hclip0_7_58)"><path d="M63.81 15.073L53.332 48.146l.247.78a3.972 3.972 0 01-.262 3.05 3.97 3.97 0 01-1.747 1.728l-.009.033-2.367 7.47a4.007 4.007 0 01-5.02 2.606L32 59.957l-12.174 3.856a4.007 4.007 0 01-5.02-2.606L.188 15.074a3.974 3.974 0 01.263-3.05 3.972 3.972 0 012.343-1.972L33.944.187a4.005 4.005 0 015.02 2.605l.076.242c.01.002.018.003.026.006l22.14 7.013a3.975 3.975 0 012.342 1.97c.492.95.585 2.032.262 3.05zM48.444 54.75l-12.028 3.809 8.562 2.712a1.335 1.335 0 001.675-.868l1.791-5.653zm2.593-5.018L36.421 3.598a1.335 1.335 0 00-1.673-.869L3.6 12.595c-.34.107-.617.34-.78.657a1.325 1.325 0 00-.089 1.017l14.616 46.133c.222.701.973 1.09 1.674.869l12.54-3.972a.84.84 0 01.085-.027l18.523-5.867c.34-.107.617-.34.78-.657.165-.316.196-.677.088-1.017v.001zm-2.54-16.847l4.95-15.62-11.002-3.484 6.052 19.104zM61.18 13.25a1.325 1.325 0 00-.78-.656L40.023 6.14l1.446 4.561c.088.01.176.028.263.056l12.518 3.965a2.65 2.65 0 011.561 1.313 2.651 2.651 0 01.176 2.034l-6.092 19.228 2.038 6.434 9.335-29.464c.107-.34.076-.7-.088-1.017zM30.94 23.336a4.891 4.891 0 012.427 2.884 4.606 4.606 0 01-.513 3.885l-3.213 5.021a2.761 2.761 0 01-2.317 1.268c-.354 0-.708-.068-1.04-.204l-5.519-2.254a4.606 4.606 0 01-2.656-2.881 4.892 4.892 0 01.323-3.755 4.891 4.891 0 012.884-2.427 4.949 4.949 0 013.262.104 4.946 4.946 0 012.607-1.964 4.897 4.897 0 013.755.323zm-.115 3.689a2.245 2.245 0 00-1.113-1.322 2.242 2.242 0 00-1.722-.148 2.243 2.243 0 00-1.514 1.63 1.335 1.335 0 01-2.178.69 2.245 2.245 0 00-2.177-.46 2.241 2.241 0 00-1.32 1.115 2.242 2.242 0 00-.149 1.722c.175.553.585.997 1.123 1.217l5.518 2.254a.08.08 0 00.058.002.081.081 0 00.045-.034l3.213-5.022c.314-.49.393-1.088.217-1.642v-.002zm13.347 13.907a2.647 2.647 0 01-.175 2.033 2.652 2.652 0 01-1.562 1.314L21.24 50.994a2.671 2.671 0 01-3.347-1.737L8.013 18.07a2.649 2.649 0 01.175-2.034 2.65 2.65 0 011.561-1.313l21.196-6.714a2.67 2.67 0 013.348 1.737l9.88 31.186zm-2.542.805l-9.88-31.186-9.772 3.094-11.425 3.619 9.88 31.186 21.197-6.713z"/></g><defs><clipPath id="hclip0_7_58"><path d="M0 0h64v64H0z"/></clipPath></defs></svg><svg viewBox="0 0 65 65" id="what-4" xmlns="http://www.w3.org/2000/svg"><g clip-path="url(#iclip0_7_69)"><path d="M63.131 51.506a6.393 6.393 0 010 9.031L60.54 63.13A6.345 6.345 0 0156.023 65a6.344 6.344 0 01-4.516-1.87L30.988 42.613l-2.862 2.862a6.343 6.343 0 01-1.85 5.026l-2.726 2.726a6.343 6.343 0 01-4.516 1.87 6.344 6.344 0 01-4.515-1.87L1.865 40.575a6.392 6.392 0 010-9.03l2.726-2.726a6.346 6.346 0 015.026-1.85L26.97 9.619a6.374 6.374 0 011.848-5.024l2.725-2.725A6.347 6.347 0 0136.058 0c1.706 0 3.31.664 4.516 1.87l12.653 12.652a6.393 6.393 0 010 9.03l-2.725 2.726a6.346 6.346 0 01-5.027 1.85l-2.862 2.862 20.518 20.516zM31.164 35.784l4.619-4.619 3.46-3.46 5.155-5.154.4.4a1.679 1.679 0 002.377 0l2.725-2.725a1.68 1.68 0 000-2.376L37.246 5.197a1.676 1.676 0 00-1.188-.492c-.43 0-.86.164-1.188.492l-2.726 2.725a1.682 1.682 0 000 2.377l.4.4-21.85 21.847-.4-.4a1.675 1.675 0 00-1.188-.492c-.43 0-.86.164-1.188.492L5.193 34.87a1.68 1.68 0 000 2.376L17.846 49.9a1.679 1.679 0 002.377 0l2.725-2.725a1.68 1.68 0 000-2.377l-.4-.4 5.155-5.154 3.461-3.46zm28.64 19.05L39.285 34.317l-4.97 4.97 20.52 20.516c.327.328.758.492 1.188.492.43 0 .86-.164 1.188-.492l2.593-2.593a1.68 1.68 0 000-2.376z"/></g><defs><clipPath id="iclip0_7_69"><path d="M0 0h65v65H0z"/></clipPath></defs></svg></svg>